<svg xmlns="http://www.w3.org/2000/svg" xmlns:xlink="http://www.w3.org/1999/xlink" width="500" zoomAndPan="magnify" viewBox="0 0 375 374.999991" height="500" preserveAspectRatio="xMidYMid meet" version="1.0"><defs><filter x="0%" y="0%" width="100%" height="100%" id="b55134ffce"><feColorMatrix values="0 0 0 0 1 0 0 0 0 1 0 0 0 0 1 0 0 0 1 0" color-interpolation-filters="sRGB"/></filter><g/><clipPath id="9afc9eda72"><path d="M 111 80.070312 L 265 80.070312 L 265 231 L 111 231 Z M 111 80.070312 " clip-rule="nonzero"/></clipPath><clipPath id="43862c1f9c"><path d="M 154.390625 129.761719 L 220.609375 129.761719 L 220.609375 187.898438 L 154.390625 187.898438 Z M 154.390625 129.761719 " clip-rule="nonzero"/></clipPath><clipPath id="908d2f1e43"><path d="M 154.390625 146.894531 C 154.390625 165.34375 187.5 187.84375 187.5 187.84375 C 187.5 187.84375 220.460938 165.183594 220.609375 146.894531 C 220.609375 137.453125 212.914062 129.761719 203.472656 129.761719 C 196.214844 129.761719 189.964844 134.40625 187.5 140.792969 C 185.035156 134.40625 178.785156 129.761719 171.527344 129.761719 C 162.085938 129.761719 154.390625 137.453125 154.390625 146.894531 " clip-rule="nonzero"/></clipPath><mask id="b65fd991f7"><g filter="url(#b55134ffce)"><rect x="-37.5" width="450" fill="#000000" y="-37.499999" height="449.999989" fill-opacity="0.8196"/></g></mask><clipPath id="9d15bf2f7a"><path d="M 0.152344 0.617188 L 52.847656 0.617188 L 52.847656 46.886719 L 0.152344 46.886719 Z M 0.152344 0.617188 " clip-rule="nonzero"/></clipPath><clipPath id="68e4b2ee6b"><path d="M 0.152344 14.257812 C 0.152344 28.9375 26.5 46.84375 26.5 46.84375 C 26.5 46.84375 52.734375 28.8125 52.847656 14.257812 C 52.847656 6.742188 46.726562 0.617188 39.210938 0.617188 C 33.433594 0.617188 28.460938 4.316406 26.5 9.398438 C 24.539062 4.316406 19.566406 0.617188 13.789062 0.617188 C 6.273438 0.617188 0.152344 6.742188 0.152344 14.257812 " clip-rule="nonzero"/></clipPath><clipPath id="9d375cf8a8"><rect x="0" width="54" y="0" height="47"/></clipPath></defs><path fill="#1b9ce4" d="M 138.449219 151.15625 C 138.449219 125.230469 159.46875 104.210938 185.394531 104.210938 C 197.25 104.210938 208.074219 108.605469 216.335938 115.855469 C 207.347656 101.921875 191.691406 92.695312 173.878906 92.695312 C 145.996094 92.695312 123.390625 115.300781 123.390625 143.183594 C 123.390625 167.410156 140.453125 187.648438 163.21875 192.542969 C 148.472656 184.625 138.449219 169.0625 138.449219 151.15625 " fill-opacity="1" fill-rule="nonzero"/><g clip-path="url(#9afc9eda72)"><path fill="#183e9f" d="M 233.882812 80.417969 C 232.957031 80.070312 232.546875 81.039062 232.386719 82.339844 C 232.078125 84.878906 233.09375 87.394531 235.019531 89.082031 C 255.148438 106.71875 251.242188 149.933594 238.085938 147.355469 C 229.449219 145.664062 238.648438 119.992188 231.445312 119.117188 C 226.664062 118.535156 222.414062 130.4375 222.71875 146.128906 C 222.890625 155.105469 225.773438 162.515625 228.308594 168.945312 C 231.976562 178.261719 228.605469 188.925781 220.167969 194.3125 C 193.3125 211.449219 157.246094 208.292969 133.789062 184.832031 C 121.398438 172.441406 114.671875 156.527344 113.613281 140.3125 C 108.429688 164.324219 115.191406 190.394531 133.902344 209.023438 C 157.484375 232.507812 195.136719 237.394531 223.957031 220.753906 C 251.3125 204.953125 262.753906 172.445312 264.382812 142.21875 C 266.453125 103.773438 244.386719 84.375 233.882812 80.417969 Z M 230.113281 101.457031 C 240.570312 110.644531 244.523438 126.742188 244.058594 139.703125 C 245.699219 135.683594 246.589844 129.796875 246.386719 123.496094 C 246.113281 115.070312 244.109375 107.179688 240.753906 100.785156 C 236.417969 96.613281 232.144531 93.972656 228.945312 92.765625 C 227.996094 92.410156 227.589844 93.429688 227.4375 94.777344 C 227.15625 97.304688 228.203125 99.777344 230.113281 101.457031 " fill-opacity="1" fill-rule="nonzero"/></g><g clip-path="url(#43862c1f9c)"><g clip-path="url(#908d2f1e43)"><path fill="#183e9f" d="M 154.390625 129.761719 L 220.609375 129.761719 L 220.609375 187.898438 L 154.390625 187.898438 Z M 154.390625 129.761719 " fill-opacity="1" fill-rule="nonzero"/></g></g><g mask="url(#b65fd991f7)"><g transform="matrix(1, 0, 0, 1, 161, 141)"><g clip-path="url(#9d375cf8a8)"><g clip-path="url(#9d15bf2f7a)"><g clip-path="url(#68e4b2ee6b)"><path fill="#54afe6" d="M 0.152344 0.617188 L 52.847656 0.617188 L 52.847656 46.886719 L 0.152344 46.886719 Z M 0.152344 0.617188 " fill-opacity="1" fill-rule="nonzero"/></g></g></g></g></g><g fill="#183172" fill-opacity="1"><g transform="translate(120.677737, 296.533867)"><g><path d="M 27.515625 -0.03125 L 22.78125 -0.03125 L 22.78125 -17.390625 C 22.78125 -17.722656 22.835938 -18.566406 22.953125 -19.921875 C 22.890625 -19.734375 22.804688 -19.46875 22.703125 -19.125 C 22.597656 -18.789062 22.5 -18.484375 22.40625 -18.203125 C 22.3125 -17.921875 22.21875 -17.648438 22.125 -17.390625 L 15.859375 0 L 13.265625 0 L 6.828125 -17.390625 C 6.734375 -17.648438 6.640625 -17.921875 6.546875 -18.203125 C 6.453125 -18.484375 6.351562 -18.789062 6.25 -19.125 C 6.144531 -19.46875 6.054688 -19.734375 5.984375 -19.921875 C 5.984375 -19.703125 6.007812 -19.300781 6.0625 -18.71875 C 6.125 -18.132812 6.15625 -17.691406 6.15625 -17.390625 L 6.15625 -0.03125 L 2.34375 -0.03125 L 2.34375 -23.484375 C 2.34375 -23.503906 2.300781 -23.675781 2.21875 -24 C 2.132812 -24.332031 2.050781 -24.671875 1.96875 -25.015625 C 1.894531 -25.367188 1.859375 -25.570312 1.859375 -25.625 L 8.578125 -25.625 L 14.03125 -10.921875 C 14.289062 -10.222656 14.628906 -8.8125 15.046875 -6.6875 C 15.097656 -6.851562 15.222656 -7.441406 15.421875 -8.453125 C 15.617188 -9.460938 15.8125 -10.238281 16 -10.78125 L 21.34375 -25.625 L 27.515625 -25.625 Z M 27.515625 -0.03125 "/></g></g></g><g fill="#183172" fill-opacity="1"><g transform="translate(150.001114, 296.533867)"><g><path d="M 16.3125 -10.296875 C 16.3125 -8.890625 15.71875 -8.1875 14.53125 -8.1875 L 5.359375 -8.1875 C 5.359375 -6.695312 5.753906 -5.363281 6.546875 -4.1875 C 7.335938 -3.007812 8.445312 -2.421875 9.875 -2.421875 C 10.59375 -2.421875 11.34375 -2.59375 12.125 -2.9375 C 12.90625 -3.289062 13.566406 -3.734375 14.109375 -4.265625 L 15.890625 -1.46875 C 15.171875 -0.863281 14.21875 -0.398438 13.03125 -0.078125 C 11.851562 0.234375 10.726562 0.390625 9.65625 0.390625 C 6.945312 0.390625 4.8125 -0.421875 3.25 -2.046875 C 1.6875 -3.671875 0.90625 -5.847656 0.90625 -8.578125 C 0.90625 -11.160156 1.632812 -13.359375 3.09375 -15.171875 C 4.550781 -16.984375 6.539062 -17.890625 9.0625 -17.890625 C 11.351562 -17.890625 13.132812 -17.195312 14.40625 -15.8125 C 15.675781 -14.4375 16.3125 -12.597656 16.3125 -10.296875 Z M 11.9375 -11.71875 C 11.9375 -12.675781 11.691406 -13.460938 11.203125 -14.078125 C 10.710938 -14.703125 10.007812 -15.015625 9.09375 -15.015625 C 8.164062 -15.015625 7.335938 -14.582031 6.609375 -13.71875 C 5.890625 -12.851562 5.503906 -11.929688 5.453125 -10.953125 L 11.34375 -10.953125 C 11.738281 -10.953125 11.9375 -11.207031 11.9375 -11.71875 Z M 11.9375 -11.71875 "/></g></g></g><g fill="#183172" fill-opacity="1"><g transform="translate(167.287208, 296.533867)"><g><path d="M 18.03125 -0.109375 L 13.796875 0.3125 C 13.609375 -0.195312 13.429688 -0.894531 13.265625 -1.78125 C 12.796875 -1.101562 12.097656 -0.566406 11.171875 -0.171875 C 10.253906 0.222656 9.34375 0.421875 8.4375 0.421875 C 6.082031 0.421875 4.25 -0.46875 2.9375 -2.25 C 1.632812 -4.039062 0.984375 -6.148438 0.984375 -8.578125 C 0.984375 -11.234375 1.6875 -13.4375 3.09375 -15.1875 C 4.507812 -16.9375 6.507812 -17.8125 9.09375 -17.8125 C 10.78125 -17.8125 12.078125 -17.4375 12.984375 -16.6875 C 12.960938 -17.320312 12.953125 -18.035156 12.953125 -18.828125 L 12.953125 -24.984375 L 12.421875 -26.875 L 17.15625 -26.875 L 17.15625 -4.96875 C 17.15625 -2.800781 17.445312 -1.179688 18.03125 -0.109375 Z M 12.953125 -4.515625 L 12.953125 -10.21875 C 12.953125 -11.550781 12.679688 -12.65625 12.140625 -13.53125 C 11.609375 -14.40625 10.722656 -14.84375 9.484375 -14.84375 C 8.523438 -14.84375 7.734375 -14.484375 7.109375 -13.765625 C 6.492188 -13.054688 6.082031 -12.273438 5.875 -11.421875 C 5.664062 -10.578125 5.5625 -9.6875 5.5625 -8.75 C 5.5625 -7.207031 5.890625 -5.8125 6.546875 -4.5625 C 7.203125 -3.3125 8.226562 -2.6875 9.625 -2.6875 C 10.25 -2.6875 10.867188 -2.851562 11.484375 -3.1875 C 12.109375 -3.53125 12.597656 -3.972656 12.953125 -4.515625 Z M 12.953125 -4.515625 "/></g></g></g><g fill="#183172" fill-opacity="1"><g transform="translate(186.812796, 296.533867)"><g><path d="M 17.921875 0 L 2.34375 0 L 2.34375 -23.484375 L 1.8125 -25.625 L 17.921875 -25.625 L 17.921875 -22.15625 L 7.140625 -22.15625 L 7.140625 -14.90625 L 15.40625 -14.90625 L 15.40625 -11.4375 L 7.140625 -11.4375 L 7.140625 -3.46875 L 17.921875 -3.46875 Z M 17.921875 0 "/></g></g></g><g fill="#183172" fill-opacity="1"><g transform="translate(206.023453, 296.533867)"><g><path d="M 18.0625 -0.671875 C 17.851562 -0.617188 17.53125 -0.519531 17.09375 -0.375 C 16.664062 -0.238281 16.3125 -0.128906 16.03125 -0.046875 C 15.75 0.0234375 15.414062 0.0976562 15.03125 0.171875 C 14.644531 0.242188 14.300781 0.28125 14 0.28125 C 13.300781 0.28125 12.707031 0.0664062 12.21875 -0.359375 C 11.726562 -0.796875 11.398438 -1.363281 11.234375 -2.0625 C 10.066406 -0.425781 8.316406 0.390625 5.984375 0.390625 C 4.554688 0.390625 3.375 -0.00390625 2.4375 -0.796875 C 1.507812 -1.597656 1.046875 -2.695312 1.046875 -4.09375 C 1.046875 -5.3125 1.335938 -6.335938 1.921875 -7.171875 C 2.503906 -8.015625 3.296875 -8.640625 4.296875 -9.046875 C 5.304688 -9.453125 6.3125 -9.742188 7.3125 -9.921875 C 8.3125 -10.097656 9.382812 -10.1875 10.53125 -10.1875 L 10.53125 -12.453125 C 10.53125 -13.367188 10.332031 -14.003906 9.9375 -14.359375 C 9.539062 -14.722656 8.898438 -14.90625 8.015625 -14.90625 C 6.773438 -14.90625 5.28125 -14.226562 3.53125 -12.875 L 1.8125 -15.640625 C 3.9375 -17.085938 6.296875 -17.8125 8.890625 -17.8125 C 10.753906 -17.8125 12.191406 -17.332031 13.203125 -16.375 C 14.222656 -15.414062 14.734375 -14.003906 14.734375 -12.140625 L 14.734375 -4.546875 C 14.734375 -3.378906 15.015625 -2.796875 15.578125 -2.796875 C 15.765625 -2.796875 16.347656 -2.9375 17.328125 -3.21875 Z M 10.53125 -6.515625 L 10.53125 -7.3125 C 7.125 -7.3125 5.421875 -6.378906 5.421875 -4.515625 C 5.421875 -4.003906 5.625 -3.59375 6.03125 -3.28125 C 6.445312 -2.976562 6.921875 -2.828125 7.453125 -2.828125 C 8.359375 -2.828125 9.097656 -3.207031 9.671875 -3.96875 C 10.242188 -4.726562 10.53125 -5.578125 10.53125 -6.515625 Z M 10.53125 -6.515625 "/></g></g></g><g fill="#183172" fill-opacity="1"><g transform="translate(223.309547, 296.533867)"><g><path d="M 13.75 -5.421875 C 13.75 -3.628906 13.070312 -2.195312 11.71875 -1.125 C 10.363281 -0.0507812 8.769531 0.484375 6.9375 0.484375 C 4.875 0.484375 2.9375 -0.015625 1.125 -1.015625 L 2.625 -3.890625 C 4.207031 -2.953125 5.523438 -2.484375 6.578125 -2.484375 C 7.328125 -2.484375 7.953125 -2.675781 8.453125 -3.0625 C 8.953125 -3.445312 9.203125 -4 9.203125 -4.71875 C 9.203125 -5.351562 8.9375 -5.878906 8.40625 -6.296875 C 7.882812 -6.722656 7.25 -7.0625 6.5 -7.3125 C 5.757812 -7.570312 5.007812 -7.867188 4.25 -8.203125 C 3.488281 -8.546875 2.847656 -9.066406 2.328125 -9.765625 C 1.804688 -10.460938 1.546875 -11.335938 1.546875 -12.390625 C 1.546875 -14.140625 2.210938 -15.484375 3.546875 -16.421875 C 4.890625 -17.367188 6.460938 -17.84375 8.265625 -17.84375 C 10.242188 -17.84375 11.957031 -17.484375 13.40625 -16.765625 L 11.9375 -13.828125 C 10.90625 -14.617188 9.75 -15.015625 8.46875 -15.015625 C 7.8125 -15.015625 7.25 -14.851562 6.78125 -14.53125 C 6.320312 -14.21875 6.09375 -13.757812 6.09375 -13.15625 C 6.09375 -12.570312 6.351562 -12.09375 6.875 -11.71875 C 7.40625 -11.351562 8.046875 -11.035156 8.796875 -10.765625 C 9.554688 -10.492188 10.3125 -10.179688 11.0625 -9.828125 C 11.8125 -9.484375 12.445312 -8.941406 12.96875 -8.203125 C 13.488281 -7.472656 13.75 -6.546875 13.75 -5.421875 Z M 13.75 -5.421875 "/></g></g></g><g fill="#183172" fill-opacity="1"><g transform="translate(238.356146, 296.533867)"><g><path d="M 16.03125 -17.390625 L 9.828125 0.109375 C 8.054688 5.191406 5.523438 7.734375 2.234375 7.734375 L 0.9375 7.734375 L 0.9375 4.765625 C 1.21875 4.828125 1.523438 4.859375 1.859375 4.859375 C 2.484375 4.859375 3.046875 4.710938 3.546875 4.421875 C 4.054688 4.128906 4.476562 3.703125 4.8125 3.140625 C 5.144531 2.585938 5.410156 2.082031 5.609375 1.625 C 5.816406 1.164062 6.023438 0.613281 6.234375 -0.03125 L -0.0625 -17.390625 L 4.4375 -17.390625 C 4.601562 -16.898438 5.101562 -15.484375 5.9375 -13.140625 C 6.78125 -10.796875 7.414062 -8.992188 7.84375 -7.734375 C 7.9375 -7.429688 8.035156 -6.957031 8.140625 -6.3125 C 8.242188 -5.675781 8.304688 -5.273438 8.328125 -5.109375 C 8.585938 -6.597656 8.75 -7.472656 8.8125 -7.734375 L 12.1875 -17.390625 Z M 16.03125 -17.390625 "/></g></g></g><g fill="#183e9f" fill-opacity="1"><g transform="translate(140.062495, 258.783924)"><g><path d="M 9.40625 0 L 8.015625 0 L 8.015625 -5.15625 L 2.703125 -5.15625 L 2.703125 0 L 1.3125 0 L 1.3125 -9.9375 C 1.3125 -9.9375 1.289062 -10.007812 1.25 -10.15625 C 1.21875 -10.3125 1.179688 -10.472656 1.140625 -10.640625 C 1.109375 -10.804688 1.09375 -10.898438 1.09375 -10.921875 L 2.703125 -10.921875 L 2.703125 -6.1875 L 8.015625 -6.1875 L 8.015625 -10.921875 L 9.40625 -10.921875 Z M 9.40625 0 "/></g></g></g><g fill="#183e9f" fill-opacity="1"><g transform="translate(150.772482, 258.783924)"><g><path d="M 7.640625 0 L 1.296875 0 L 1.296875 -9.9375 C 1.296875 -9.9375 1.273438 -10.007812 1.234375 -10.15625 C 1.203125 -10.3125 1.164062 -10.472656 1.125 -10.640625 C 1.09375 -10.804688 1.078125 -10.898438 1.078125 -10.921875 L 7.640625 -10.921875 L 7.640625 -9.890625 L 2.6875 -9.890625 L 2.6875 -6.125 L 6.53125 -6.125 L 6.53125 -5.09375 L 2.6875 -5.09375 L 2.6875 -1.03125 L 7.640625 -1.03125 Z M 7.640625 0 "/></g></g></g><g fill="#183e9f" fill-opacity="1"><g transform="translate(159.007478, 258.783924)"><g><path d="M 9.203125 0 L 7.671875 0 L 6.40625 -3.75 L 2.8125 -3.75 L 1.53125 0 L 0.265625 0 L 4.0625 -10.921875 L 5.4375 -10.921875 Z M 6.0625 -4.765625 L 4.625 -9.09375 L 3.15625 -4.765625 Z M 6.0625 -4.765625 "/></g></g></g><g fill="#183e9f" fill-opacity="1"><g transform="translate(168.472474, 258.783924)"><g><path d="M 7.28125 0 L 1.296875 0 L 1.296875 -9.9375 C 1.296875 -9.9375 1.273438 -10.007812 1.234375 -10.15625 C 1.203125 -10.3125 1.164062 -10.472656 1.125 -10.640625 C 1.09375 -10.804688 1.078125 -10.898438 1.078125 -10.921875 L 2.6875 -10.921875 L 2.6875 -1.03125 L 7.28125 -1.03125 Z M 7.28125 0 "/></g></g></g><g fill="#183e9f" fill-opacity="1"><g transform="translate(176.182461, 258.783924)"><g><path d="M 5.03125 0 L 3.59375 0 L 3.59375 -9.890625 L 0.359375 -9.890625 L 0.359375 -10.921875 L 8.3125 -10.921875 L 8.3125 -9.890625 L 5.03125 -9.890625 Z M 5.03125 0 "/></g></g></g><g fill="#183e9f" fill-opacity="1"><g transform="translate(184.852447, 258.783924)"><g><path d="M 9.40625 0 L 8.015625 0 L 8.015625 -5.15625 L 2.703125 -5.15625 L 2.703125 0 L 1.3125 0 L 1.3125 -9.9375 C 1.3125 -9.9375 1.289062 -10.007812 1.25 -10.15625 C 1.21875 -10.3125 1.179688 -10.472656 1.140625 -10.640625 C 1.109375 -10.804688 1.09375 -10.898438 1.09375 -10.921875 L 2.703125 -10.921875 L 2.703125 -6.1875 L 8.015625 -6.1875 L 8.015625 -10.921875 L 9.40625 -10.921875 Z M 9.40625 0 "/></g></g></g><g fill="#183e9f" fill-opacity="1"><g transform="translate(195.562434, 258.783924)"><g/></g></g><g fill="#183e9f" fill-opacity="1"><g transform="translate(199.012427, 258.783924)"><g><path d="M 8.453125 -1.875 L 9.109375 -0.875 C 8.703125 -0.539062 8.1875 -0.28125 7.5625 -0.09375 C 6.9375 0.09375 6.34375 0.1875 5.78125 0.1875 C 4.195312 0.1875 2.953125 -0.359375 2.046875 -1.453125 C 1.140625 -2.546875 0.6875 -3.890625 0.6875 -5.484375 C 0.6875 -7.109375 1.140625 -8.441406 2.046875 -9.484375 C 2.960938 -10.535156 4.21875 -11.0625 5.8125 -11.0625 C 6.394531 -11.0625 7 -10.957031 7.625 -10.75 C 8.25 -10.550781 8.734375 -10.265625 9.078125 -9.890625 L 8.296875 -9.015625 C 8.015625 -9.328125 7.632812 -9.570312 7.15625 -9.75 C 6.675781 -9.925781 6.21875 -10.015625 5.78125 -10.015625 C 5.15625 -10.015625 4.609375 -9.878906 4.140625 -9.609375 C 3.671875 -9.347656 3.300781 -8.988281 3.03125 -8.53125 C 2.757812 -8.082031 2.554688 -7.59375 2.421875 -7.0625 C 2.285156 -6.539062 2.21875 -5.988281 2.21875 -5.40625 C 2.21875 -4.800781 2.285156 -4.238281 2.421875 -3.71875 C 2.554688 -3.195312 2.757812 -2.726562 3.03125 -2.3125 C 3.3125 -1.894531 3.6875 -1.5625 4.15625 -1.3125 C 4.632812 -1.0625 5.1875 -0.9375 5.8125 -0.9375 C 6.257812 -0.9375 6.726562 -1.019531 7.21875 -1.1875 C 7.71875 -1.363281 8.128906 -1.59375 8.453125 -1.875 Z M 8.453125 -1.875 "/></g></g></g><g fill="#183e9f" fill-opacity="1"><g transform="translate(208.372423, 258.783924)"><g><path d="M 9.203125 0 L 7.671875 0 L 6.40625 -3.75 L 2.8125 -3.75 L 1.53125 0 L 0.265625 0 L 4.0625 -10.921875 L 5.4375 -10.921875 Z M 6.0625 -4.765625 L 4.625 -9.09375 L 3.15625 -4.765625 Z M 6.0625 -4.765625 "/></g></g></g><g fill="#183e9f" fill-opacity="1"><g transform="translate(217.837419, 258.783924)"><g><path d="M 8.984375 0 L 7.359375 0 L 4.546875 -4.9375 C 4.316406 -4.914062 3.941406 -4.90625 3.421875 -4.90625 L 2.671875 -4.90625 L 2.671875 0 L 1.28125 0 L 1.28125 -9.9375 C 1.28125 -9.9375 1.257812 -10.007812 1.21875 -10.15625 C 1.1875 -10.3125 1.148438 -10.472656 1.109375 -10.640625 C 1.078125 -10.804688 1.0625 -10.898438 1.0625 -10.921875 L 4.3125 -10.921875 C 6.78125 -10.921875 8.015625 -9.914062 8.015625 -7.90625 C 8.015625 -7.300781 7.8125 -6.738281 7.40625 -6.21875 C 7 -5.707031 6.503906 -5.363281 5.921875 -5.1875 Z M 2.671875 -5.921875 L 3.875 -5.921875 C 4.695312 -5.921875 5.347656 -6.070312 5.828125 -6.375 C 6.316406 -6.6875 6.5625 -7.226562 6.5625 -8 C 6.5625 -8.601562 6.34375 -9.066406 5.90625 -9.390625 C 5.476562 -9.722656 4.945312 -9.890625 4.3125 -9.890625 L 2.671875 -9.890625 Z M 2.671875 -5.921875 "/></g></g></g><g fill="#183e9f" fill-opacity="1"><g transform="translate(226.702413, 258.783924)"><g><path d="M 7.640625 0 L 1.296875 0 L 1.296875 -9.9375 C 1.296875 -9.9375 1.273438 -10.007812 1.234375 -10.15625 C 1.203125 -10.3125 1.164062 -10.472656 1.125 -10.640625 C 1.09375 -10.804688 1.078125 -10.898438 1.078125 -10.921875 L 7.640625 -10.921875 L 7.640625 -9.890625 L 2.6875 -9.890625 L 2.6875 -6.125 L 6.53125 -6.125 L 6.53125 -5.09375 L 2.6875 -5.09375 L 2.6875 -1.03125 L 7.640625 -1.03125 Z M 7.640625 0 "/></g></g></g></svg>